<svg width="1369" height="317" viewBox="0 0 1369 317" fill="none" xmlns="http://www.w3.org/2000/svg">
<path d="M179.802 249.259C181.348 268.012 169.344 296.711 163.238 310.965C216.549 250.189 215.263 202.314 127.269 161.274C-51.6854 77.8118 46.0501 -32.4469 188.238 96.3033C155.389 51.0322 88.3277 -12.8169 33.5229 18.3829C-10.168 39.6337 5.56057 108.063 5.56057 108.063C13.8442 215.82 94.2135 311.705 102.287 313.386C62.4403 277.739 28.2111 149.197 22.5472 107.389C22.5472 107.389 38.5043 143.784 103.244 173.738C177.996 203.795 179.103 240.78 179.802 249.259Z" fill="#1F5D96"/>
<path d="M179.802 249.259C181.348 268.012 169.344 296.711 163.238 310.965C216.549 250.189 215.263 202.314 127.269 161.274C-51.6854 77.8118 46.0501 -32.4469 188.238 96.3033C155.389 51.0322 88.3277 -12.8169 33.5229 18.3829C-10.168 39.6337 5.56057 108.063 5.56057 108.063C13.8442 215.82 94.2135 311.705 102.287 313.386C62.4403 277.739 28.2111 149.197 22.5472 107.389C22.5472 107.389 38.5043 143.784 103.244 173.738C177.996 203.795 179.103 240.78 179.802 249.259Z" fill="url(#paint0_linear_2507_92)"/>
<path d="M115.046 206.295L98.0593 206.97C88.6967 243.37 106.741 295.362 115.276 312.87C101.873 277.774 108.433 224.572 115.046 206.295Z" fill="#1F5D96"/>
<path d="M115.046 206.295L98.0593 206.97C88.6967 243.37 106.741 295.362 115.276 312.87C101.873 277.774 108.433 224.572 115.046 206.295Z" fill="url(#paint1_linear_2507_92)"/>
<path d="M270.673 93.0287C267.837 160.194 211.546 288.363 182.223 310.211C203.803 273.992 247.25 183.63 247.691 93.9416C248.16 -1.65247 155.119 43.5762 149.623 43.7945C166.293 24.7178 201.85 10.6954 214.88 11.1787C232.366 10.4841 273.509 25.8633 270.673 93.0287Z" fill="#1F5D96"/>
<path d="M270.673 93.0287C267.837 160.194 211.546 288.363 182.223 310.211C203.803 273.992 247.25 183.63 247.691 93.9416C248.16 -1.65247 155.119 43.5762 149.623 43.7945C166.293 24.7178 201.85 10.6954 214.88 11.1787C232.366 10.4841 273.509 25.8633 270.673 93.0287Z" fill="url(#paint2_linear_2507_92)"/>
<path d="M389 167.6H409C413.933 159.067 417.8 150.6 420.6 142.2C423.4 133.8 425.467 125.267 426.8 116.6C428.267 107.933 429.133 99 429.4 89.8C429.8 80.6 430 70.9333 430 60.8V55.4H521.6V167.6H545.4V231H515.4V194H419V231H389V167.6ZM459.4 81.8C459.133 89 458.667 96.4 458 104C457.333 111.6 456.333 119.133 455 126.6C453.667 133.933 451.867 141.133 449.6 148.2C447.467 155.133 444.733 161.6 441.4 167.6H491.2V81.8H459.4ZM603.653 173.2C606.586 173.2 609.386 173.133 612.053 173C614.72 172.867 616.853 172.667 618.453 172.4V149.8C617.253 149.533 615.453 149.267 613.053 149C610.653 148.733 608.453 148.6 606.453 148.6C603.653 148.6 600.986 148.8 598.453 149.2C596.053 149.467 593.92 150.067 592.053 151C590.186 151.933 588.72 153.2 587.653 154.8C586.586 156.4 586.053 158.4 586.053 160.8C586.053 165.467 587.586 168.733 590.653 170.6C593.853 172.333 598.186 173.2 603.653 173.2ZM601.253 86C610.053 86 617.386 87 623.253 89C629.12 91 633.786 93.8667 637.253 97.6C640.853 101.333 643.386 105.867 644.853 111.2C646.32 116.533 647.053 122.467 647.053 129V191C642.786 191.933 636.853 193 629.253 194.2C621.653 195.533 612.453 196.2 601.653 196.2C594.853 196.2 588.653 195.6 583.053 194.4C577.586 193.2 572.853 191.267 568.853 188.6C564.853 185.8 561.786 182.2 559.653 177.8C557.52 173.4 556.453 168 556.453 161.6C556.453 155.467 557.653 150.267 560.053 146C562.586 141.733 565.92 138.333 570.053 135.8C574.186 133.267 578.92 131.467 584.253 130.4C589.586 129.2 595.12 128.6 600.853 128.6C604.72 128.6 608.12 128.8 611.053 129.2C614.12 129.467 616.586 129.867 618.453 130.4V127.6C618.453 122.533 616.92 118.467 613.853 115.4C610.786 112.333 605.453 110.8 597.853 110.8C592.786 110.8 587.786 111.2 582.853 112C577.92 112.667 573.653 113.667 570.053 115L566.253 91C567.986 90.4667 570.12 89.9333 572.653 89.4C575.32 88.7333 578.186 88.2 581.253 87.8C584.32 87.2667 587.52 86.8667 590.853 86.6C594.32 86.2 597.786 86 601.253 86ZM764.6 194H734.8V152.4H703.8V194H674V88.8H703.8V128H734.8V88.8H764.6V194ZM879.555 113.2H845.955V194H816.155V113.2H782.555V88.8H879.555V113.2ZM993.433 88.8V194H963.433C963.433 187.333 963.499 180.733 963.633 174.2C963.766 167.533 963.899 161.4 964.033 155.8C964.166 150.2 964.299 145.333 964.433 141.2C964.699 136.933 964.833 133.8 964.833 131.8C960.966 137.267 957.099 142.8 953.233 148.4C949.366 154 945.633 159.533 942.033 165C938.566 170.333 935.233 175.467 932.033 180.4C928.966 185.333 926.233 189.867 923.833 194H897.633V88.8H927.433C927.433 95.4667 927.366 101.867 927.233 108C927.233 114 927.166 119.467 927.033 124.4C926.899 129.333 926.766 133.667 926.633 137.4C926.499 141 926.433 143.8 926.433 145.8C934.433 134.067 941.766 123.533 948.433 114.2C955.233 104.867 961.833 96.4 968.233 88.8H993.433ZM1016.46 141.4C1016.46 133.8 1017.66 126.667 1020.06 120C1022.59 113.2 1026.19 107.333 1030.86 102.4C1035.53 97.3333 1041.19 93.3333 1047.86 90.4C1054.53 87.4667 1062.13 86 1070.66 86C1076.26 86 1081.39 86.5333 1086.06 87.6C1090.73 88.5333 1095.26 89.9333 1099.66 91.8L1093.46 115.6C1090.66 114.533 1087.59 113.6 1084.26 112.8C1080.93 112 1077.19 111.6 1073.06 111.6C1064.26 111.6 1057.66 114.333 1053.26 119.8C1048.99 125.267 1046.86 132.467 1046.86 141.4C1046.86 150.867 1048.86 158.2 1052.86 163.4C1056.99 168.6 1064.13 171.2 1074.26 171.2C1077.86 171.2 1081.73 170.867 1085.86 170.2C1089.99 169.533 1093.79 168.467 1097.26 167L1101.46 191.4C1097.99 192.867 1093.66 194.133 1088.46 195.2C1083.26 196.267 1077.53 196.8 1071.26 196.8C1061.66 196.8 1053.39 195.4 1046.46 192.6C1039.53 189.667 1033.79 185.733 1029.26 180.8C1024.86 175.867 1021.59 170.067 1019.46 163.4C1017.46 156.6 1016.46 149.267 1016.46 141.4ZM1208.46 113.2H1174.86V194H1145.06V113.2H1111.46V88.8H1208.46V113.2Z" fill="#333333"/>
<path d="M408.04 296.9C405.12 296.9 402.46 296.42 400.06 295.46C397.66 294.5 395.6 293.1 393.88 291.26C392.16 289.42 390.82 287.16 389.86 284.48C388.94 281.76 388.48 278.66 388.48 275.18C388.48 271.7 389 268.62 390.04 265.94C391.12 263.22 392.56 260.94 394.36 259.1C396.16 257.26 398.26 255.86 400.66 254.9C403.06 253.94 405.62 253.46 408.34 253.46C410.06 253.46 411.6 253.58 412.96 253.82C414.36 254.06 415.56 254.34 416.56 254.66C417.6 254.98 418.44 255.3 419.08 255.62C419.72 255.94 420.16 256.18 420.4 256.34L418.72 261.14C418.36 260.9 417.84 260.64 417.16 260.36C416.48 260.08 415.7 259.8 414.82 259.52C413.98 259.24 413.04 259.02 412 258.86C411 258.66 409.98 258.56 408.94 258.56C406.74 258.56 404.76 258.94 403 259.7C401.24 260.46 399.74 261.56 398.5 263C397.26 264.44 396.3 266.2 395.62 268.28C394.98 270.32 394.66 272.62 394.66 275.18C394.66 277.66 394.94 279.92 395.5 281.96C396.1 284 396.98 285.76 398.14 287.24C399.3 288.68 400.74 289.8 402.46 290.6C404.22 291.4 406.26 291.8 408.58 291.8C411.26 291.8 413.48 291.52 415.24 290.96C417 290.4 418.32 289.9 419.2 289.46L420.7 294.26C420.42 294.46 419.92 294.72 419.2 295.04C418.48 295.32 417.58 295.6 416.5 295.88C415.42 296.16 414.16 296.4 412.72 296.6C411.28 296.8 409.72 296.9 408.04 296.9ZM456.143 254.42V259.46H443.063V296H437.243V259.46H424.163V254.42H456.143ZM458.968 275.18C458.968 271.62 459.488 268.48 460.528 265.76C461.608 263.04 463.048 260.78 464.848 258.98C466.688 257.14 468.808 255.76 471.208 254.84C473.648 253.92 476.228 253.46 478.948 253.46C481.628 253.46 484.148 253.92 486.508 254.84C488.908 255.76 491.008 257.14 492.808 258.98C494.608 260.78 496.028 263.04 497.068 265.76C498.148 268.48 498.688 271.62 498.688 275.18C498.688 278.74 498.148 281.88 497.068 284.6C496.028 287.32 494.608 289.6 492.808 291.44C491.008 293.24 488.908 294.6 486.508 295.52C484.148 296.44 481.628 296.9 478.948 296.9C476.228 296.9 473.648 296.44 471.208 295.52C468.808 294.6 466.688 293.24 464.848 291.44C463.048 289.6 461.608 287.32 460.528 284.6C459.488 281.88 458.968 278.74 458.968 275.18ZM465.088 275.18C465.088 277.7 465.408 280 466.048 282.08C466.688 284.12 467.588 285.86 468.748 287.3C469.948 288.74 471.388 289.86 473.068 290.66C474.788 291.42 476.708 291.8 478.828 291.8C480.948 291.8 482.848 291.42 484.528 290.66C486.208 289.86 487.628 288.74 488.788 287.3C489.988 285.86 490.908 284.12 491.548 282.08C492.188 280 492.508 277.7 492.508 275.18C492.508 272.66 492.188 270.38 491.548 268.34C490.908 266.26 489.988 264.5 488.788 263.06C487.628 261.62 486.208 260.52 484.528 259.76C482.848 258.96 480.948 258.56 478.828 258.56C476.708 258.56 474.788 258.96 473.068 259.76C471.388 260.52 469.948 261.62 468.748 263.06C467.588 264.5 466.688 266.26 466.048 268.34C465.408 270.38 465.088 272.66 465.088 275.18ZM526.008 290.24C525.608 289.28 525.068 288.06 524.388 286.58C523.748 285.1 523.048 283.5 522.288 281.78C521.528 280.06 520.708 278.3 519.827 276.5C518.988 274.66 518.188 272.94 517.428 271.34C516.668 269.7 515.948 268.24 515.268 266.96C514.628 265.68 514.108 264.7 513.708 264.02C513.268 268.74 512.908 273.86 512.628 279.38C512.348 284.86 512.108 290.4 511.908 296H506.208C506.368 292.4 506.548 288.78 506.748 285.14C506.948 281.46 507.168 277.86 507.408 274.34C507.688 270.78 507.968 267.32 508.248 263.96C508.568 260.6 508.908 257.42 509.268 254.42H514.368C515.448 256.18 516.608 258.26 517.848 260.66C519.088 263.06 520.328 265.58 521.568 268.22C522.808 270.82 524.008 273.44 525.168 276.08C526.328 278.68 527.388 281.06 528.348 283.22C529.308 281.06 530.368 278.68 531.528 276.08C532.688 273.44 533.888 270.82 535.128 268.22C536.368 265.58 537.608 263.06 538.848 260.66C540.088 258.26 541.248 256.18 542.328 254.42H547.428C548.788 267.82 549.808 281.68 550.488 296H544.788C544.588 290.4 544.348 284.86 544.068 279.38C543.788 273.86 543.428 268.74 542.988 264.02C542.588 264.7 542.048 265.68 541.368 266.96C540.728 268.24 540.028 269.7 539.268 271.34C538.508 272.94 537.688 274.66 536.808 276.5C535.968 278.3 535.168 280.06 534.408 281.78C533.648 283.5 532.928 285.1 532.248 286.58C531.608 288.06 531.088 289.28 530.688 290.24H526.008ZM587.393 296C586.713 294.2 586.073 292.44 585.473 290.72C584.873 288.96 584.253 287.18 583.613 285.38H564.773L560.993 296H554.933C556.533 291.6 558.033 287.54 559.433 283.82C560.833 280.06 562.193 276.5 563.513 273.14C564.873 269.78 566.213 266.58 567.533 263.54C568.853 260.46 570.233 257.42 571.673 254.42H577.013C578.453 257.42 579.833 260.46 581.153 263.54C582.473 266.58 583.793 269.78 585.113 273.14C586.473 276.5 587.853 280.06 589.253 283.82C590.653 287.54 592.153 291.6 593.753 296H587.393ZM581.933 280.58C580.653 277.1 579.373 273.74 578.093 270.5C576.853 267.22 575.553 264.08 574.193 261.08C572.793 264.08 571.453 267.22 570.173 270.5C568.933 273.74 567.693 277.1 566.453 280.58H581.933ZM623.311 254.42V259.46H610.231V296H604.411V259.46H591.331V254.42H623.311ZM626.136 275.18C626.136 271.62 626.656 268.48 627.696 265.76C628.776 263.04 630.216 260.78 632.016 258.98C633.856 257.14 635.976 255.76 638.376 254.84C640.816 253.92 643.396 253.46 646.116 253.46C648.796 253.46 651.316 253.92 653.676 254.84C656.076 255.76 658.176 257.14 659.976 258.98C661.776 260.78 663.196 263.04 664.236 265.76C665.316 268.48 665.856 271.62 665.856 275.18C665.856 278.74 665.316 281.88 664.236 284.6C663.196 287.32 661.776 289.6 659.976 291.44C658.176 293.24 656.076 294.6 653.676 295.52C651.316 296.44 648.796 296.9 646.116 296.9C643.396 296.9 640.816 296.44 638.376 295.52C635.976 294.6 633.856 293.24 632.016 291.44C630.216 289.6 628.776 287.32 627.696 284.6C626.656 281.88 626.136 278.74 626.136 275.18ZM632.256 275.18C632.256 277.7 632.576 280 633.216 282.08C633.856 284.12 634.756 285.86 635.916 287.3C637.116 288.74 638.556 289.86 640.236 290.66C641.956 291.42 643.876 291.8 645.996 291.8C648.116 291.8 650.016 291.42 651.696 290.66C653.376 289.86 654.796 288.74 655.956 287.3C657.156 285.86 658.076 284.12 658.716 282.08C659.356 280 659.676 277.7 659.676 275.18C659.676 272.66 659.356 270.38 658.716 268.34C658.076 266.26 657.156 264.5 655.956 263.06C654.796 261.62 653.376 260.52 651.696 259.76C650.016 258.96 648.116 258.56 645.996 258.56C643.876 258.56 641.956 258.96 640.236 259.76C638.556 260.52 637.116 261.62 635.916 263.06C634.756 264.5 633.856 266.26 633.216 268.34C632.576 270.38 632.256 272.66 632.256 275.18ZM687.329 259.4C687.249 261.64 687.169 263.82 687.089 265.94C687.009 268.02 686.889 270.06 686.729 272.06C686.569 274.02 686.329 275.94 686.009 277.82C685.689 279.7 685.249 281.54 684.689 283.34C684.129 285.14 683.429 286.84 682.589 288.44C681.789 290 680.769 291.38 679.529 292.58C678.329 293.74 676.889 294.68 675.209 295.4C673.569 296.12 671.629 296.52 669.389 296.6L668.729 291.56C671.529 291.24 673.689 290.36 675.209 288.92C676.769 287.48 678.049 285.28 679.049 282.32C680.169 278.96 680.869 274.92 681.149 270.2C681.469 265.44 681.629 260.18 681.629 254.42H705.209V296H699.389V259.4H687.329ZM713.851 275.18C713.851 271.62 714.371 268.48 715.411 265.76C716.491 263.04 717.931 260.78 719.731 258.98C721.571 257.14 723.691 255.76 726.091 254.84C728.531 253.92 731.111 253.46 733.831 253.46C736.511 253.46 739.031 253.92 741.391 254.84C743.791 255.76 745.891 257.14 747.691 258.98C749.491 260.78 750.911 263.04 751.951 265.76C753.031 268.48 753.571 271.62 753.571 275.18C753.571 278.74 753.031 281.88 751.951 284.6C750.911 287.32 749.491 289.6 747.691 291.44C745.891 293.24 743.791 294.6 741.391 295.52C739.031 296.44 736.511 296.9 733.831 296.9C731.111 296.9 728.531 296.44 726.091 295.52C723.691 294.6 721.571 293.24 719.731 291.44C717.931 289.6 716.491 287.32 715.411 284.6C714.371 281.88 713.851 278.74 713.851 275.18ZM719.971 275.18C719.971 277.7 720.291 280 720.931 282.08C721.571 284.12 722.471 285.86 723.631 287.3C724.831 288.74 726.271 289.86 727.951 290.66C729.671 291.42 731.591 291.8 733.711 291.8C735.831 291.8 737.731 291.42 739.411 290.66C741.091 289.86 742.511 288.74 743.671 287.3C744.871 285.86 745.791 284.12 746.431 282.08C747.071 280 747.391 277.7 747.391 275.18C747.391 272.66 747.071 270.38 746.431 268.34C745.791 266.26 744.871 264.5 743.671 263.06C742.511 261.62 741.091 260.52 739.411 259.76C737.731 258.96 735.831 258.56 733.711 258.56C731.591 258.56 729.671 258.96 727.951 259.76C726.271 260.52 724.831 261.62 723.631 263.06C722.471 264.5 721.571 266.26 720.931 268.34C720.291 270.38 719.971 272.66 719.971 275.18ZM786.65 254.42V259.46H768.05V296H762.23V254.42H786.65ZM792.758 296V254.42H798.458V285.2C799.738 283.08 801.298 280.66 803.138 277.94C805.018 275.22 806.998 272.46 809.078 269.66C811.198 266.82 813.318 264.08 815.438 261.44C817.598 258.76 819.618 256.42 821.498 254.42H826.118V296H820.418V263.54C819.298 264.82 818.078 266.3 816.758 267.98C815.438 269.66 814.078 271.46 812.678 273.38C811.278 275.26 809.858 277.22 808.418 279.26C807.018 281.3 805.658 283.32 804.338 285.32C803.018 287.28 801.778 289.18 800.618 291.02C799.498 292.86 798.498 294.52 797.618 296H792.758ZM840.49 266.42C840.49 268.1 840.63 269.58 840.91 270.86C841.23 272.1 841.75 273.14 842.47 273.98C843.23 274.78 844.23 275.38 845.47 275.78C846.75 276.18 848.35 276.38 850.27 276.38C851.03 276.38 851.79 276.36 852.55 276.32C853.35 276.24 854.11 276.16 854.83 276.08C855.55 276 856.19 275.9 856.75 275.78C857.31 275.66 857.77 275.56 858.13 275.48V254.42H863.95V296H858.13V280.52C857.37 280.72 856.19 280.92 854.59 281.12C853.03 281.32 851.35 281.42 849.55 281.42C846.51 281.42 844.03 281.08 842.11 280.4C840.19 279.68 838.67 278.68 837.55 277.4C836.47 276.08 835.73 274.5 835.33 272.66C834.93 270.78 834.73 268.7 834.73 266.42V254.42H840.49V266.42ZM874.262 296V254.42H899.642V259.4H880.082V271.76H897.482V276.62H880.082V291.02H901.142V296H874.262ZM924.72 296.9C921.8 296.9 919.14 296.42 916.74 295.46C914.34 294.5 912.28 293.1 910.56 291.26C908.84 289.42 907.5 287.16 906.54 284.48C905.62 281.76 905.16 278.66 905.16 275.18C905.16 271.7 905.68 268.62 906.72 265.94C907.8 263.22 909.24 260.94 911.04 259.1C912.84 257.26 914.94 255.86 917.34 254.9C919.74 253.94 922.3 253.46 925.02 253.46C926.74 253.46 928.28 253.58 929.64 253.82C931.04 254.06 932.24 254.34 933.24 254.66C934.28 254.98 935.12 255.3 935.76 255.62C936.4 255.94 936.84 256.18 937.08 256.34L935.4 261.14C935.04 260.9 934.52 260.64 933.84 260.36C933.16 260.08 932.38 259.8 931.5 259.52C930.66 259.24 929.72 259.02 928.68 258.86C927.68 258.66 926.66 258.56 925.62 258.56C923.42 258.56 921.44 258.94 919.68 259.7C917.92 260.46 916.42 261.56 915.18 263C913.94 264.44 912.98 266.2 912.3 268.28C911.66 270.32 911.34 272.62 911.34 275.18C911.34 277.66 911.62 279.92 912.18 281.96C912.78 284 913.66 285.76 914.82 287.24C915.98 288.68 917.42 289.8 919.14 290.6C920.9 291.4 922.94 291.8 925.26 291.8C927.94 291.8 930.16 291.52 931.92 290.96C933.68 290.4 935 289.9 935.88 289.46L937.38 294.26C937.1 294.46 936.6 294.72 935.88 295.04C935.16 295.32 934.26 295.6 933.18 295.88C932.1 296.16 930.84 296.4 929.4 296.6C927.96 296.8 926.4 296.9 924.72 296.9ZM974.827 254.42C973.587 255.78 972.187 257.3 970.627 258.98C969.067 260.62 967.427 262.32 965.707 264.08C964.027 265.8 962.347 267.5 960.667 269.18C958.987 270.86 957.407 272.42 955.927 273.86C957.647 275.06 959.467 276.54 961.387 278.3C963.307 280.06 965.187 281.94 967.027 283.94C968.867 285.94 970.587 287.98 972.187 290.06C973.827 292.14 975.187 294.12 976.267 296H969.427C968.227 294.12 966.847 292.24 965.287 290.36C963.727 288.44 962.067 286.62 960.307 284.9C958.587 283.14 956.827 281.52 955.027 280.04C953.267 278.56 951.547 277.3 949.867 276.26V296H944.047V254.42H949.867V272.78C951.267 271.46 952.807 269.98 954.487 268.34C956.167 266.66 957.827 264.98 959.467 263.3C961.107 261.62 962.647 260.02 964.087 258.5C965.567 256.94 966.807 255.58 967.807 254.42H974.827ZM981.781 296V254.42H987.481V285.2C988.761 283.08 990.321 280.66 992.161 277.94C994.041 275.22 996.021 272.46 998.101 269.66C1000.22 266.82 1002.34 264.08 1004.46 261.44C1006.62 258.76 1008.64 256.42 1010.52 254.42H1015.14V296H1009.44V263.54C1008.32 264.82 1007.1 266.3 1005.78 267.98C1004.46 269.66 1003.1 271.46 1001.7 273.38C1000.3 275.26 998.881 277.22 997.441 279.26C996.041 281.3 994.681 283.32 993.361 285.32C992.041 287.28 990.801 289.18 989.641 291.02C988.521 292.86 987.521 294.52 986.641 296H981.781ZM1025.43 296V254.42H1050.81V259.4H1031.25V271.76H1048.65V276.62H1031.25V291.02H1052.31V296H1025.43ZM1104.38 254.42C1103.14 255.78 1101.74 257.3 1100.18 258.98C1098.62 260.62 1096.98 262.32 1095.26 264.08C1093.58 265.8 1091.9 267.5 1090.22 269.18C1088.54 270.86 1086.96 272.42 1085.48 273.86C1087.2 275.06 1089.02 276.54 1090.94 278.3C1092.86 280.06 1094.74 281.94 1096.58 283.94C1098.42 285.94 1100.14 287.98 1101.74 290.06C1103.38 292.14 1104.74 294.12 1105.82 296H1098.98C1097.78 294.12 1096.4 292.24 1094.84 290.36C1093.28 288.44 1091.62 286.62 1089.86 284.9C1088.14 283.14 1086.38 281.52 1084.58 280.04C1082.82 278.56 1081.1 277.3 1079.42 276.26V296H1073.6V254.42H1079.42V272.78C1080.82 271.46 1082.36 269.98 1084.04 268.34C1085.72 266.66 1087.38 264.98 1089.02 263.3C1090.66 261.62 1092.2 260.02 1093.64 258.5C1095.12 256.94 1096.36 255.58 1097.36 254.42H1104.38ZM1127.08 259.4C1127 261.64 1126.92 263.82 1126.84 265.94C1126.76 268.02 1126.64 270.06 1126.48 272.06C1126.32 274.02 1126.08 275.94 1125.76 277.82C1125.44 279.7 1125 281.54 1124.44 283.34C1123.88 285.14 1123.18 286.84 1122.34 288.44C1121.54 290 1120.52 291.38 1119.28 292.58C1118.08 293.74 1116.64 294.68 1114.96 295.4C1113.32 296.12 1111.38 296.52 1109.14 296.6L1108.48 291.56C1111.28 291.24 1113.44 290.36 1114.96 288.92C1116.52 287.48 1117.8 285.28 1118.8 282.32C1119.92 278.96 1120.62 274.92 1120.9 270.2C1121.22 265.44 1121.38 260.18 1121.38 254.42H1144.96V296H1139.14V259.4H1127.08ZM1155.28 296V254.42H1160.98V285.2C1162.26 283.08 1163.82 280.66 1165.66 277.94C1167.54 275.22 1169.52 272.46 1171.6 269.66C1173.72 266.82 1175.84 264.08 1177.96 261.44C1180.12 258.76 1182.14 256.42 1184.02 254.42H1188.64V296H1182.94V263.54C1181.82 264.82 1180.6 266.3 1179.28 267.98C1177.96 269.66 1176.6 271.46 1175.2 273.38C1173.8 275.26 1172.38 277.22 1170.94 279.26C1169.54 281.3 1168.18 283.32 1166.86 285.32C1165.54 287.28 1164.3 289.18 1163.14 291.02C1162.02 292.86 1161.02 294.52 1160.14 296H1155.28ZM1225.09 254.42H1230.91V296H1225.09V276.8H1204.75V296H1198.93V254.42H1204.75V271.76H1225.09V254.42ZM1241.23 296V254.42H1246.93V285.2C1248.21 283.08 1249.77 280.66 1251.61 277.94C1253.49 275.22 1255.47 272.46 1257.55 269.66C1259.67 266.82 1261.79 264.08 1263.91 261.44C1266.07 258.76 1268.09 256.42 1269.97 254.42H1274.59V296H1268.89V263.54C1267.77 264.82 1266.55 266.3 1265.23 267.98C1263.91 269.66 1262.55 271.46 1261.15 273.38C1259.75 275.26 1258.33 277.22 1256.89 279.26C1255.49 281.3 1254.13 283.32 1252.81 285.32C1251.49 287.28 1250.25 289.18 1249.09 291.02C1247.97 292.86 1246.97 294.52 1246.09 296H1241.23ZM1315.67 254.42C1314.43 255.78 1313.03 257.3 1311.47 258.98C1309.91 260.62 1308.27 262.32 1306.55 264.08C1304.87 265.8 1303.19 267.5 1301.51 269.18C1299.83 270.86 1298.25 272.42 1296.77 273.86C1298.49 275.06 1300.31 276.54 1302.23 278.3C1304.15 280.06 1306.03 281.94 1307.87 283.94C1309.71 285.94 1311.43 287.98 1313.03 290.06C1314.67 292.14 1316.03 294.12 1317.11 296H1310.27C1309.07 294.12 1307.69 292.24 1306.13 290.36C1304.57 288.44 1302.91 286.62 1301.15 284.9C1299.43 283.14 1297.67 281.52 1295.87 280.04C1294.11 278.56 1292.39 277.3 1290.71 276.26V296H1284.89V254.42H1290.71V272.78C1292.11 271.46 1293.65 269.98 1295.33 268.34C1297.01 266.66 1298.67 264.98 1300.31 263.3C1301.95 261.62 1303.49 260.02 1304.93 258.5C1306.41 256.94 1307.65 255.58 1308.65 254.42H1315.67ZM1322.62 296V254.42H1328.32V285.2C1329.6 283.08 1331.16 280.66 1333 277.94C1334.88 275.22 1336.86 272.46 1338.94 269.66C1341.06 266.82 1343.18 264.08 1345.3 261.44C1347.46 258.76 1349.48 256.42 1351.36 254.42H1355.98V296H1350.28V263.54C1349.16 264.82 1347.94 266.3 1346.62 267.98C1345.3 269.66 1343.94 271.46 1342.54 273.38C1341.14 275.26 1339.72 277.22 1338.28 279.26C1336.88 281.3 1335.52 283.32 1334.2 285.32C1332.88 287.28 1331.64 289.18 1330.48 291.02C1329.36 292.86 1328.36 294.52 1327.48 296H1322.62Z" fill="#333333"/>
<defs>
<linearGradient id="paint0_linear_2507_92" x1="232.311" y1="242.589" x2="22.6307" y2="53.2622" gradientUnits="userSpaceOnUse">
<stop stop-color="#5E08A3"/>
<stop offset="1" stop-color="#3692FF"/>
</linearGradient>
<linearGradient id="paint1_linear_2507_92" x1="232.311" y1="242.589" x2="22.6307" y2="53.2622" gradientUnits="userSpaceOnUse">
<stop stop-color="#5E08A3"/>
<stop offset="1" stop-color="#3692FF"/>
</linearGradient>
<linearGradient id="paint2_linear_2507_92" x1="232.311" y1="242.589" x2="22.6307" y2="53.2622" gradientUnits="userSpaceOnUse">
<stop stop-color="#5E08A3"/>
<stop offset="1" stop-color="#3692FF"/>
</linearGradient>
</defs>
</svg>
